PathFileType	4	(X/Y/Z)	2014001\dynamic\2014001_C1_04.trc
DataRate	CameraRate	NumFrames	NumMarkers	Units	OrigDataRate	OrigDataStartFrame	OrigNumFrames
100.000000	100.000000	4	52	mm	100.000000	284	569
Frame#	Time	L_IAS			L_IPS			R_IPS			R_IAS			L_FTC			L_FLE			L_FME			L_FAX			L_TTC			L_FAL			L_TAM			L_FCC			L_FM1			L_FM2			L_FM5			R_FTC			R_FLE			R_FME			R_FAX			R_TTC			R_FAL			R_TAM			R_FCC			R_FM1			R_FM2			R_FM5			CV7			TV10			SXS			SJN			L_SIA			L_SRS			L_SAA			L_SAE			L_HLE			L_HME			L_UOA			L_RSP			L_UHE			L_HM2			L_HM5			R_SIA			R_SRS			R_SAA			R_SAE			R_HLE			R_HME			R_UOA			R_RSP			R_UHE			R_HM2			R_HM5			
		X1	Y1	Z1	X2	Y2	Z2	X3	Y3	Z3	X4	Y4	Z4	X5	Y5	Z5	X6	Y6	Z6	X7	Y7	Z7	X8	Y8	Z8	X9	Y9	Z9	X10	Y10	Z10	X11	Y11	Z11	X12	Y12	Z12	X13	Y13	Z13	X14	Y14	Z14	X15	Y15	Z15	X16	Y16	Z16	X17	Y17	Z17	X18	Y18	Z18	X19	Y19	Z19	X20	Y20	Z20	X21	Y21	Z21	X22	Y22	Z22	X23	Y23	Z23	X24	Y24	Z24	X25	Y25	Z25	X26	Y26	Z26	X27	Y27	Z27	X28	Y28	Z28	X29	Y29	Z29	X30	Y30	Z30	X31	Y31	Z31	X32	Y32	Z32	X33	Y33	Z33	X34	Y34	Z34	X35	Y35	Z35	X36	Y36	Z36	X37	Y37	Z37	X38	Y38	Z38	X39	Y39	Z39	X40	Y40	Z40	X41	Y41	Z41	X42	Y42	Z42	X43	Y43	Z43	X44	Y44	Z44	X45	Y45	Z45	X46	Y46	Z46	X47	Y47	Z47	X48	Y48	Z48	X49	Y49	Z49	X50	Y50	Z50	X51	Y51	Z51	X52	Y52	Z52	

285	2.84	322.047332763672	875.8059692382817	669.9702148437502	221.1901702880861	925.5800781250005	507.2342834472659	130.6450805664063	920.6748046875005	517.3591308593752	83.3129806518555	877.2764282226567	702.174743652344	370.1988830566407	803.3297729492192	573.963562011719	387.4032897949221	461.0576171875002	520.5120849609377	280.6717224121095	422.0051269531252	560.2879028320315	390.2470703125002	423.390319824219	472.394470214844	360.9256286621095	360.998260498047	515.411315917969	346.3957824707032	202.4462280273439	240.7682495117189	267.1157226562501	181.5050811767579	278.8854370117189	287.731170654297	211.9826049804689	198.8535461425782	277.235809326172	59.74274063110354	265.887176513672	340.6203613281251	53.5273132324219	271.468475341797	378.3823547363282	89.63214874267581	233.8681945800782	17.44586563110352	783.1743164062505	614.6893310546877	81.97676849365237	434.1014404296877	633.787292480469	202.9857788085939	433.1884460449221	627.8674316406252	81.046501159668	366.8602294921876	615.285583496094	143.2190704345704	364.6314086914064	668.4605102539065	146.3799896240235	63.78454208374026	552.5012207031252	235.7621307373048	83.79952239990237	583.683776855469	202.1400299072267	24.92432212829591	505.9283752441409	221.9265899658204	21.41636657714844	691.9253540039065	158.5928344726563	38.09231567382814	698.791442871094	112.3948211669922	26.29638290405275	640.4827880859377	190.0420379638672	1386.1650390625	557.8790283203127	177.7214660644532	1155.224243164063	487.2046813964846	203.5262756347657	1151.40478515625	715.6696777343752	201.6414031982423	1315.149658203125	681.1089477539065	276.1468811035157	1194.955444335938	474.2181396484377	272.9099121093751	1323.90673828125	502.5597839355471	386.8670043945315	1314.713989257813	570.5256347656252	373.0029907226564	1324.517700195313	611.7847900390627	445.7027282714846	1038.748046875	579.2207641601565	368.2325744628907	1006.457214355469	559.607604980469	417.7928161621096	1000.521240234375	550.4375000000002	401.685241699219	835.1328735351567	720.1523437500002	465.2442321777346	817.508666992188	673.9080200195315	406.6660156250002	762.530212402344	767.9692993164065	463.4521484375002	740.3760375976565	686.256774902344	64.98227691650393	1201.092041015625	494.5540466308596	94.50686645507815	1324.629272460938	522.622253417969	0.3020655810832978	1321.767211914063	609.842224121094	17.33214569091798	1324.80859375	656.2993164062502	-77.7322692871094	1026.858032226563	610.5759277343752	-4.767175674438478	1006.248901367188	579.863220214844	-51.04309844970706	998.746215820313	580.7529907226565	-39.85607528686525	832.2673339843755	733.302429199219	-107.9620513916016	824.1829223632817	687.5930786132815	-57.36175918579104	752.2698974609377	779.0981445312505	-111.3543395996094	745.398620605469	691.3092041015627	
286	2.85	321.3116149902345	875.768676757813	671.887145996094	220.571746826172	925.505493164063	509.2525634765627	130.0257873535157	920.4935913085942	519.338806152344	82.6562423706055	877.0202636718755	704.1173095703127	369.6425170898439	803.252319335938	576.197692871094	387.3841247558596	460.7629394531252	524.7640380859377	280.4530029296876	421.3853149414065	564.6066894531252	390.1931457519534	423.3047790527346	476.7064208984377	360.996063232422	360.6946716308595	519.5764160156252	345.5328063964845	203.6749114990236	244.2061462402345	266.4524841308595	182.3586883544922	282.5088500976564	286.6506652832032	213.5186157226564	202.5730285644532	276.9121704101564	60.59536361694339	268.4732666015626	340.048797607422	54.05524444580081	273.5845336914064	377.6912841796876	91.08987426757815	236.1608428955079	16.93851470947266	782.8253784179692	616.5894775390627	81.7970886230469	433.8384094238284	634.9210205078127	202.7843627929689	433.0393981933596	628.8867797851565	80.89241027832034	366.6330871582032	616.2678222656252	143.1342163085938	364.3064270019532	669.351989746094	146.3818511962891	63.76237106323245	552.559753417969	235.7383117675782	83.73854064941409	583.696960449219	202.1400909423829	24.91852378845216	505.9092712402346	221.9453582763673	21.35319137573243	691.9014892578127	158.6336669921876	38.090145111084	698.7979125976565	112.4343032836915	26.31347846984865	640.4891357421877	189.3534393310547	1386.080810546875	560.0728149414065	176.9161071777344	1155.162841796875	489.273620605469	202.8609619140626	1151.213623046875	717.7271728515627	201.0624389648439	1314.936767578125	683.2390136718752	275.2878417968751	1194.854125976563	476.2459411621096	272.1390686035157	1323.79150390625	504.6618652343752	386.143981933594	1314.517456054688	572.500915527344	372.3387145996095	1324.281372070313	613.7746582031252	444.991638183594	1038.610717773438	580.6275024414065	367.4808349609376	1006.363952636719	561.136901855469	416.9718017578127	1000.607666015625	551.7764282226565	402.1257629394534	833.8062133789067	720.1077270507815	465.5158996582034	816.7583618164067	673.365417480469	407.511657714844	760.727233886719	767.169616699219	463.941833496094	739.4925537109377	684.975769042969	64.1806335449219	1201.083618164063	496.7104187011721	93.73764801025393	1324.61328125	524.8555297851565	-0.3831963837146761	1321.714965820313	612.1647949218752	16.67985916137696	1324.7138671875	658.601745605469	-78.24814605712893	1026.70263671875	612.6109619140627	-5.360753059387209	1006.189819335938	581.7653808593752	-51.61894226074222	998.6821899414067	582.665710449219	-39.84645462036134	831.9644165039067	734.8997802734377	-108.056251525879	823.858032226563	689.3227539062502	-57.12432098388675	751.8521728515627	780.5849609375005	-111.3407897949219	745.0444335937502	692.9357910156252	
287	2.86	320.6127929687501	875.7533569335942	673.7891235351565	219.9792480468751	925.4252319335942	511.2251586914065	129.4329986572266	920.3025512695317	521.2725219726565	82.01676177978518	876.7768554687505	706.016540527344	369.1170959472657	803.1618652343755	578.408874511719	387.3543395996096	460.4495239257815	529.1463012695315	280.2366027832032	420.7680358886721	569.0803833007815	390.1123352050784	423.2131958007815	481.1426391601565	361.0586547851564	360.3760375976564	523.8696289062502	344.6254882812501	204.8862915039064	247.7778320312501	265.7594299316407	183.2050476074219	286.2818298339845	285.5291748046876	215.0132904052736	206.4310913085939	276.5598449707032	61.43069839477542	271.3358459472657	339.4343566894532	54.59940338134768	275.9300842285157	376.9358520507814	92.51026153564456	238.6343536376954	16.4545021057129	782.488891601563	618.4296875000002	81.63129425048831	433.5819396972659	636.0256958007815	202.5970001220704	432.8949279785159	629.8760375976565	80.7519226074219	366.4108886718751	617.2231445312502	143.0625152587891	363.9916992187501	670.2149047851565	146.3855895996094	63.7400817871094	552.6185302734377	235.6835174560548	83.64856719970706	583.6992797851565	202.1421051025392	24.90878295898439	505.890808105469	221.9498443603517	21.2747974395752	691.868835449219	158.6786499023438	38.09173583984376	698.8004150390627	112.4786071777344	26.33475875854494	640.4964599609377	188.6735839843751	1385.997436523438	562.213073730469	176.1264190673829	1155.100463867188	491.2907714843752	202.2154388427736	1151.023559570313	719.730163574219	200.490692138672	1314.730102539063	685.3131103515627	274.4420471191407	1194.759765625	478.2131347656252	271.375946044922	1323.680419921875	506.707702636719	385.4299011230471	1314.32861328125	574.4136962890627	371.6875610351564	1324.051025390625	615.7026367187502	444.2918701171877	1038.492065429688	581.941345214844	366.7403564453126	1006.284851074219	562.5825805664065	416.1656494140627	1000.717895507813	553.022644042969	402.613708496094	832.4805297851567	719.9382934570315	465.8303527832034	816.0312500000005	672.6661376953127	408.4173889160159	758.915710449219	766.1916503906252	464.4754333496096	738.6277465820315	683.5137939453127	63.39087295532229	1201.07373046875	498.8162231445315	92.97715759277347	1324.597290039063	527.0371093750002	-1.057086706161499	1321.657958984375	614.4417114257815	16.04203033447266	1324.613525390625	660.8544921875002	-78.73751068115237	1026.539794921875	614.5996704101565	-5.926041126251222	1006.118713378907	583.6212158203127	-52.17119979858401	998.6155395507817	584.5232543945315	-39.82648849487306	831.639282226563	736.4353637695315	-108.1260375976563	823.5216674804692	690.9653930664065	-56.86384963989261	751.403747558594	781.9738159179692	-111.3059539794922	744.674255371094	694.4656372070315	
288	2.87	319.9591064453126	875.7644653320317	675.6878662109377	219.4131927490236	925.3378295898442	513.1552734375002	128.8678894042969	920.1036987304692	523.1634521484377	81.39406585693362	876.5463256835942	707.8753051757815	368.6204223632814	803.056274414063	580.601257324219	387.3098144531252	460.1202697753909	533.6575927734377	280.0234985351564	420.1641540527346	573.7136840820315	389.997741699219	423.1197814941409	485.7008056640627	361.1095275878907	360.0459899902345	528.291198730469	343.6771240234376	206.074188232422	251.4863586425782	265.0385742187501	184.0398864746094	290.2053833007814	284.3731994628907	216.4448852539064	210.4224700927736	276.202850341797	62.24245452880862	274.527069091797	338.8084411621095	55.1722221374512	278.5593872070314	376.133270263672	93.88706970214847	241.3301239013673	15.99364757537843	782.165893554688	620.2164306640627	81.47817993164065	433.3329772949221	637.0975341796877	202.4228515625001	432.7547607421877	630.8288574218752	80.62382507324222	366.1937561035157	618.1477661132815	143.0026397705079	363.6865539550782	671.0466308593752	146.3915252685547	63.71783065795901	552.6768798828127	235.5970001220704	83.53076171875003	583.6887817382815	202.1465759277345	24.89551353454591	505.8731994628909	221.939178466797	21.18221855163575	691.8273925781252	158.7281646728516	38.09788131713869	698.798034667969	112.5278472900391	26.36062049865724	640.504577636719	188.0023040771485	1385.915161132813	564.299011230469	175.3541107177735	1155.0361328125	493.2567443847659	201.5898437500001	1150.836059570313	721.6800537109377	199.9274291992189	1314.5302734375	687.330505371094	273.608856201172	1194.669799804688	480.1217956542971	270.6203613281251	1323.572509765625	508.6959228515627	384.7246398925784	1314.14697265625	576.261901855469	371.0498352050782	1323.827270507813	617.5671997070315	443.6038818359377	1038.391967773438	583.1628417968752	366.0113525390626	1006.219909667969	563.9440917968752	415.372741699219	1000.849914550782	554.1774902343752	403.140563964844	831.1644897460942	719.6520996093752	466.1788024902346	815.3308105468755	671.8200683593752	409.3733825683596	757.1057128906252	765.0457763671877	465.0451354980471	737.7882080078127	681.8872070312502	62.61337661743167	1201.061767578125	500.872497558594	92.2264099121094	1324.580810546875	529.164978027344	-1.719011306762696	1321.596069335938	616.671325683594	15.41925621032716	1324.507934570313	663.0561523437502	-79.20063018798831	1026.370727539063	616.5449829101565	-6.46300029754639	1006.039855957032	585.429626464844	-52.69981765747073	998.5473022460942	586.3289184570315	-39.80220413208009	831.287963867188	737.9239501953127	-108.1768112182618	823.1752929687505	692.5274658203127	-56.58785629272464	750.9267578125002	783.2695312500005	-111.2551422119141	744.2910156250002	695.9019775390627	
